<?xml version="1.0" encoding="us-ascii" standalone="no"?><svg xmlns="http://www.w3.org/2000/svg" xmlns:xlink="http://www.w3.org/1999/xlink" contentStyleType="text/css" height="770px" preserveAspectRatio="none" style="width:566px;height:770px;background:#FFFFFF;" version="1.1" viewBox="0 0 566 770" width="566px" zoomAndPan="magnify"><defs/><g><!--class people--><g id="elem_people"><rect codeLine="2" fill="#F1F1F1" height="80.5938" id="people" rx="2.5" ry="2.5" style="stroke:#181818;stroke-width:0.5;" width="94" x="235.5" y="241"/><ellipse cx="256.8" cy="257" fill="#ADD1B2" rx="11" ry="11" style="stroke:#181818;stroke-width:1.0;"/><path d="M259.7688,262.6406 Q259.1906,262.9375 258.55,263.0781 Q257.9094,263.2344 257.2063,263.2344 Q254.7063,263.2344 253.3781,261.5938 Q252.0656,259.9375 252.0656,256.8125 Q252.0656,253.6875 253.3781,252.0313 Q254.7063,250.375 257.2063,250.375 Q257.9094,250.375 258.55,250.5313 Q259.2063,250.6875 259.7688,250.9844 L259.7688,253.7031 Q259.1438,253.125 258.55,252.8594 Q257.9563,252.5781 257.3313,252.5781 Q255.9875,252.5781 255.3,253.6563 Q254.6125,254.7188 254.6125,256.8125 Q254.6125,258.9063 255.3,259.9844 Q255.9875,261.0469 257.3313,261.0469 Q257.9563,261.0469 258.55,260.7813 Q259.1438,260.5 259.7688,259.9219 L259.7688,262.6406 Z " fill="#000000"/><text fill="#000000" font-family="sans-serif" font-size="14" lengthAdjust="spacing" textLength="48" x="272.2" y="261.8467">people</text><line style="stroke:#181818;stroke-width:0.5;" x1="236.5" x2="328.5" y1="273" y2="273"/><text fill="#000000" font-family="sans-serif" font-size="14" lengthAdjust="spacing" textLength="81" x="241.5" y="289.9951">given-name</text><text fill="#000000" font-family="sans-serif" font-size="14" lengthAdjust="spacing" textLength="82" x="241.5" y="306.292">family-name</text><line style="stroke:#181818;stroke-width:0.5;" x1="236.5" x2="328.5" y1="313.5938" y2="313.5938"/></g><!--class addresses--><g id="elem_addresses"><rect codeLine="17" fill="#F1F1F1" height="96.8906" id="addresses" rx="2.5" ry="2.5" style="stroke:#181818;stroke-width:0.5;" width="114" x="331.5" y="399"/><ellipse cx="350.55" cy="415" fill="#ADD1B2" rx="11" ry="11" style="stroke:#181818;stroke-width:1.0;"/><path d="M353.5188,420.6406 Q352.9406,420.9375 352.3,421.0781 Q351.6594,421.2344 350.9563,421.2344 Q348.4563,421.2344 347.1281,419.5938 Q345.8156,417.9375 345.8156,414.8125 Q345.8156,411.6875 347.1281,410.0313 Q348.4563,408.375 350.9563,408.375 Q351.6594,408.375 352.3,408.5313 Q352.9563,408.6875 353.5188,408.9844 L353.5188,411.7031 Q352.8938,411.125 352.3,410.8594 Q351.7063,410.5781 351.0813,410.5781 Q349.7375,410.5781 349.05,411.6563 Q348.3625,412.7188 348.3625,414.8125 Q348.3625,416.9063 349.05,417.9844 Q349.7375,419.0469 351.0813,419.0469 Q351.7063,419.0469 352.3,418.7813 Q352.8938,418.5 353.5188,417.9219 L353.5188,420.6406 Z " fill="#000000"/><text fill="#000000" font-family="sans-serif" font-size="14" lengthAdjust="spacing" textLength="73" x="365.45" y="419.8467">addresses</text><line style="stroke:#181818;stroke-width:0.5;" x1="332.5" x2="444.5" y1="431" y2="431"/><text fill="#000000" font-family="sans-serif" font-size="14" lengthAdjust="spacing" textLength="102" x="337.5" y="447.9951">street-address</text><text fill="#000000" font-family="sans-serif" font-size="14" lengthAdjust="spacing" textLength="82" x="337.5" y="464.292">postal-code</text><text fill="#000000" font-family="sans-serif" font-size="14" lengthAdjust="spacing" textLength="46" x="337.5" y="480.5889">locality</text><line style="stroke:#181818;stroke-width:0.5;" x1="332.5" x2="444.5" y1="487.8906" y2="487.8906"/></g><!--class creative-works--><g id="elem_creative-works"><rect codeLine="23" fill="#F1F1F1" height="64.2969" id="creative-works" rx="2.5" ry="2.5" style="stroke:#181818;stroke-width:0.5;" width="132" x="119.5" y="415.5"/><ellipse cx="134.5" cy="431.5" fill="#ADD1B2" rx="11" ry="11" style="stroke:#181818;stroke-width:1.0;"/><path d="M137.4688,437.1406 Q136.8906,437.4375 136.25,437.5781 Q135.6094,437.7344 134.9063,437.7344 Q132.4063,437.7344 131.0781,436.0938 Q129.7656,434.4375 129.7656,431.3125 Q129.7656,428.1875 131.0781,426.5313 Q132.4063,424.875 134.9063,424.875 Q135.6094,424.875 136.25,425.0313 Q136.9063,425.1875 137.4688,425.4844 L137.4688,428.2031 Q136.8438,427.625 136.25,427.3594 Q135.6563,427.0781 135.0313,427.0781 Q133.6875,427.0781 133,428.1563 Q132.3125,429.2188 132.3125,431.3125 Q132.3125,433.4063 133,434.4844 Q133.6875,435.5469 135.0313,435.5469 Q135.6563,435.5469 136.25,435.2813 Q136.8438,435 137.4688,434.4219 L137.4688,437.1406 Z " fill="#000000"/><text fill="#000000" font-family="sans-serif" font-size="14" lengthAdjust="spacing" textLength="100" x="148.5" y="436.3467">creative-works</text><line style="stroke:#181818;stroke-width:0.5;" x1="120.5" x2="250.5" y1="447.5" y2="447.5"/><text fill="#000000" font-family="sans-serif" font-size="14" lengthAdjust="spacing" textLength="25" x="125.5" y="464.4951">title</text><line style="stroke:#181818;stroke-width:0.5;" x1="120.5" x2="250.5" y1="471.7969" y2="471.7969"/></g><!--class agents--><g id="elem_agents"><rect codeLine="8" fill="#F1F1F1" height="48" id="agents" rx="2.5" ry="2.5" style="stroke:#181818;stroke-width:0.5;" width="80" x="319.5" y="132"/><ellipse cx="334.5" cy="148" fill="#ADD1B2" rx="11" ry="11" style="stroke:#181818;stroke-width:1.0;"/><path d="M337.4688,153.6406 Q336.8906,153.9375 336.25,154.0781 Q335.6094,154.2344 334.9063,154.2344 Q332.4063,154.2344 331.0781,152.5938 Q329.7656,150.9375 329.7656,147.8125 Q329.7656,144.6875 331.0781,143.0313 Q332.4063,141.375 334.9063,141.375 Q335.6094,141.375 336.25,141.5313 Q336.9063,141.6875 337.4688,141.9844 L337.4688,144.7031 Q336.8438,144.125 336.25,143.8594 Q335.6563,143.5781 335.0313,143.5781 Q333.6875,143.5781 333,144.6563 Q332.3125,145.7188 332.3125,147.8125 Q332.3125,149.9063 333,150.9844 Q333.6875,152.0469 335.0313,152.0469 Q335.6563,152.0469 336.25,151.7813 Q336.8438,151.5 337.4688,150.9219 L337.4688,153.6406 Z " fill="#000000"/><text fill="#000000" font-family="sans-serif" font-size="14" lengthAdjust="spacing" textLength="48" x="348.5" y="152.8467">agents</text><line style="stroke:#181818;stroke-width:0.5;" x1="320.5" x2="398.5" y1="164" y2="164"/><line style="stroke:#181818;stroke-width:0.5;" x1="320.5" x2="398.5" y1="172" y2="172"/></g><!--class things--><g id="elem_things"><rect codeLine="15" fill="#F1F1F1" height="64.2969" id="things" rx="2.5" ry="2.5" style="stroke:#181818;stroke-width:0.5;" width="75" x="440" y="7"/><ellipse cx="455" cy="23" fill="#ADD1B2" rx="11" ry="11" style="stroke:#181818;stroke-width:1.0;"/><path d="M457.9688,28.6406 Q457.3906,28.9375 456.75,29.0781 Q456.1094,29.2344 455.4063,29.2344 Q452.9063,29.2344 451.5781,27.5938 Q450.2656,25.9375 450.2656,22.8125 Q450.2656,19.6875 451.5781,18.0313 Q452.9063,16.375 455.4063,16.375 Q456.1094,16.375 456.75,16.5313 Q457.4063,16.6875 457.9688,16.9844 L457.9688,19.7031 Q457.3438,19.125 456.75,18.8594 Q456.1563,18.5781 455.5313,18.5781 Q454.1875,18.5781 453.5,19.6563 Q452.8125,20.7188 452.8125,22.8125 Q452.8125,24.9063 453.5,25.9844 Q454.1875,27.0469 455.5313,27.0469 Q456.1563,27.0469 456.75,26.7813 Q457.3438,26.5 457.9688,25.9219 L457.9688,28.6406 Z " fill="#000000"/><text fill="#000000" font-family="sans-serif" font-size="14" lengthAdjust="spacing" textLength="43" x="469" y="27.8467">things</text><line style="stroke:#181818;stroke-width:0.5;" x1="441" x2="514" y1="39" y2="39"/><text fill="#000000" font-family="sans-serif" font-size="14" lengthAdjust="spacing" textLength="39" x="446" y="55.9951">name</text><line style="stroke:#181818;stroke-width:0.5;" x1="441" x2="514" y1="63.2969" y2="63.2969"/></g><!--class books--><g id="elem_books"><rect codeLine="10" fill="#F1F1F1" height="64.2969" id="books" rx="2.5" ry="2.5" style="stroke:#181818;stroke-width:0.5;" width="75" x="37" y="581.5"/><ellipse cx="52" cy="597.5" fill="#ADD1B2" rx="11" ry="11" style="stroke:#181818;stroke-width:1.0;"/><path d="M54.9688,603.1406 Q54.3906,603.4375 53.75,603.5781 Q53.1094,603.7344 52.4063,603.7344 Q49.9063,603.7344 48.5781,602.0938 Q47.2656,600.4375 47.2656,597.3125 Q47.2656,594.1875 48.5781,592.5313 Q49.9063,590.875 52.4063,590.875 Q53.1094,590.875 53.75,591.0313 Q54.4063,591.1875 54.9688,591.4844 L54.9688,594.2031 Q54.3438,593.625 53.75,593.3594 Q53.1563,593.0781 52.5313,593.0781 Q51.1875,593.0781 50.5,594.1563 Q49.8125,595.2188 49.8125,597.3125 Q49.8125,599.4063 50.5,600.4844 Q51.1875,601.5469 52.5313,601.5469 Q53.1563,601.5469 53.75,601.2813 Q54.3438,601 54.9688,600.4219 L54.9688,603.1406 Z " fill="#000000"/><text fill="#000000" font-family="sans-serif" font-size="14" lengthAdjust="spacing" textLength="43" x="66" y="602.3467">books</text><line style="stroke:#181818;stroke-width:0.5;" x1="38" x2="111" y1="613.5" y2="613.5"/><text fill="#000000" font-family="sans-serif" font-size="14" lengthAdjust="spacing" textLength="29" x="43" y="630.4951">isbn</text><line style="stroke:#181818;stroke-width:0.5;" x1="38" x2="111" y1="637.7969" y2="637.7969"/></g><!--class coloring-books--><g id="elem_coloring-books"><rect codeLine="13" fill="#F1F1F1" height="48" id="coloring-books" rx="2.5" ry="2.5" style="stroke:#181818;stroke-width:0.5;" width="135" x="7" y="715"/><ellipse cx="22" cy="731" fill="#ADD1B2" rx="11" ry="11" style="stroke:#181818;stroke-width:1.0;"/><path d="M24.9688,736.6406 Q24.3906,736.9375 23.75,737.0781 Q23.1094,737.2344 22.4063,737.2344 Q19.9063,737.2344 18.5781,735.5938 Q17.2656,733.9375 17.2656,730.8125 Q17.2656,727.6875 18.5781,726.0313 Q19.9063,724.375 22.4063,724.375 Q23.1094,724.375 23.75,724.5313 Q24.4063,724.6875 24.9688,724.9844 L24.9688,727.7031 Q24.3438,727.125 23.75,726.8594 Q23.1563,726.5781 22.5313,726.5781 Q21.1875,726.5781 20.5,727.6563 Q19.8125,728.7188 19.8125,730.8125 Q19.8125,732.9063 20.5,733.9844 Q21.1875,735.0469 22.5313,735.0469 Q23.1563,735.0469 23.75,734.7813 Q24.3438,734.5 24.9688,733.9219 L24.9688,736.6406 Z " fill="#000000"/><text fill="#000000" font-family="sans-serif" font-size="14" lengthAdjust="spacing" textLength="103" x="36" y="735.8467">coloring-books</text><line style="stroke:#181818;stroke-width:0.5;" x1="8" x2="141" y1="747" y2="747"/><line style="stroke:#181818;stroke-width:0.5;" x1="8" x2="141" y1="755" y2="755"/></g><!--class comments--><g id="elem_comments"><rect codeLine="28" fill="#F1F1F1" height="80.5938" id="comments" rx="2.5" ry="2.5" style="stroke:#181818;stroke-width:0.5;" width="125" x="177" y="573"/><ellipse cx="200.55" cy="589" fill="#ADD1B2" rx="11" ry="11" style="stroke:#181818;stroke-width:1.0;"/><path d="M203.5188,594.6406 Q202.9406,594.9375 202.3,595.0781 Q201.6594,595.2344 200.9563,595.2344 Q198.4563,595.2344 197.1281,593.5938 Q195.8156,591.9375 195.8156,588.8125 Q195.8156,585.6875 197.1281,584.0313 Q198.4563,582.375 200.9563,582.375 Q201.6594,582.375 202.3,582.5313 Q202.9563,582.6875 203.5188,582.9844 L203.5188,585.7031 Q202.8938,585.125 202.3,584.8594 Q201.7063,584.5781 201.0813,584.5781 Q199.7375,584.5781 199.05,585.6563 Q198.3625,586.7188 198.3625,588.8125 Q198.3625,590.9063 199.05,591.9844 Q199.7375,593.0469 201.0813,593.0469 Q201.7063,593.0469 202.3,592.7813 Q202.8938,592.5 203.5188,591.9219 L203.5188,594.6406 Z " fill="#000000"/><text fill="#000000" font-family="sans-serif" font-size="14" lengthAdjust="spacing" textLength="74" x="216.45" y="593.8467">comments</text><line style="stroke:#181818;stroke-width:0.5;" x1="178" x2="301" y1="605" y2="605"/><text fill="#000000" font-family="sans-serif" font-size="14" lengthAdjust="spacing" textLength="93" x="183" y="621.9951">upvote-count</text><text fill="#000000" font-family="sans-serif" font-size="14" lengthAdjust="spacing" textLength="113" x="183" y="638.292">downvote-count</text><line style="stroke:#181818;stroke-width:0.5;" x1="178" x2="301" y1="645.5938" y2="645.5938"/></g><!--link people to addresses--><g id="link_people_addresses"><path codeLine="5" d="M325.65,322.2 C334.25,331.43 342.71,341.62 349.5,352 C358.83,366.26 364.4334,377.5305 370.5634,393.0305 " fill="none" id="people-to-addresses" style="stroke:#181818;stroke-width:1.0;"/><polygon fill="#181818" points="372.77,398.61,373.1798,388.7697,370.9312,393.9604,365.7404,391.7118,372.77,398.61" style="stroke:#181818;stroke-width:1.0;"/><polygon fill="#000000" points="366.1776,364.789,363.8158,355.5764,358.8518,358.7241,366.1776,364.789" style="stroke:#000000;stroke-width:1.0;"/><text fill="#000000" font-family="sans-serif" font-size="13" lengthAdjust="spacing" textLength="51" x="372.5" y="365.0669">address</text><text fill="#000000" font-family="sans-serif" font-size="13" lengthAdjust="spacing" textLength="8" x="361.9955" y="387.7641">1</text></g><!--link addresses to people--><g id="link_addresses_people"><path codeLine="21" d="M331.47,421.88 C309.86,409.4 287.58,391.94 275.5,369 C268.06,354.87 267.0318,343.5346 269.4918,328.1646 " fill="none" id="addresses-to-people" style="stroke:#181818;stroke-width:1.0;"/><polygon fill="#181818" points="270.44,322.24,265.0679,330.4947,269.6498,327.1772,272.9674,331.7591,270.44,322.24" style="stroke:#181818;stroke-width:1.0;"/><polygon fill="#000000" points="277.7419,356.3959,280.28,365.5616,285.1827,362.3192,277.7419,356.3959" style="stroke:#000000;stroke-width:1.0;"/><text fill="#000000" font-family="sans-serif" font-size="13" lengthAdjust="spacing" textLength="51" x="289.5" y="365.0669">persons</text><text fill="#000000" font-family="sans-serif" font-size="13" lengthAdjust="spacing" textLength="7" x="261.0574" y="341.7349">*</text></g><!--link people to creative-works--><g id="link_people_creative-works"><path codeLine="6" d="M235.44,288.95 C170.74,298.9 59.57,320.22 35.5,352 C6.88,389.78 61.2152,414.6464 113.6452,429.7764 " fill="none" id="people-to-creative-works" style="stroke:#181818;stroke-width:1.0;"/><polygon fill="#181818" points="119.41,431.44,111.8719,425.1015,114.606,430.0537,109.6538,432.7878,119.41,431.44" style="stroke:#181818;stroke-width:1.0;"/><polygon fill="#000000" points="37.2293,364.3482,45.369,359.4293,40.9232,355.5843,37.2293,364.3482" style="stroke:#000000;stroke-width:1.0;"/><text fill="#000000" font-family="sans-serif" font-size="13" lengthAdjust="spacing" textLength="92" x="49.5" y="365.0669">creative-works</text><text fill="#000000" font-family="sans-serif" font-size="13" lengthAdjust="spacing" textLength="7" x="104.3637" y="425.7733">*</text></g><!--link creative-works to people--><g id="link_creative-works_people"><path codeLine="25" d="M177.08,415.42 C173.59,396.1 172.39,371.35 182.5,352 C193.81,330.36 210.0401,317.0407 230.1901,305.7107 " fill="none" id="creative-works-to-people" style="stroke:#181818;stroke-width:1.0;"/><polygon fill="#181818" points="235.42,302.77,225.6146,303.6944,231.0617,305.2206,229.5356,310.6677,235.42,302.77" style="stroke:#181818;stroke-width:1.0;"/><polygon fill="#000000" points="189.6786,356.066,183.0922,362.9267,188.3827,365.4879,189.6786,356.066" style="stroke:#000000;stroke-width:1.0;"/><text fill="#000000" font-family="sans-serif" font-size="13" lengthAdjust="spacing" textLength="42" x="196.5" y="365.0669">author</text><text fill="#000000" font-family="sans-serif" font-size="13" lengthAdjust="spacing" textLength="8" x="219.5984" y="301.9867">1</text></g><!--reverse link agents to people--><g id="link_agents_people"><path codeLine="7" d="M335.4969,195.5045 C324.8669,212.5545 319.69,220.85 307.22,240.86 " fill="none" id="agents-backto-people" style="stroke:#181818;stroke-width:1.0;"/><polygon fill="none" points="345.02,180.23,330.4054,192.3302,340.5884,198.6789,345.02,180.23" style="stroke:#181818;stroke-width:1.0;"/></g><!--reverse link things to agents--><g id="link_things_agents"><path codeLine="9" d="M432.6792,83.6829 C413.0192,102.8429 401.14,114.42 383.22,131.88 " fill="none" id="things-backto-agents" style="stroke:#181818;stroke-width:1.0;"/><polygon fill="none" points="445.57,71.12,428.4916,79.386,436.8669,87.9799,445.57,71.12" style="stroke:#181818;stroke-width:1.0;"/></g><!--reverse link creative-works to books--><g id="link_creative-works_books"><path codeLine="12" d="M142.5721,493.0543 C130.1421,506.6043 128.37,509.8 117.5,526 C105.82,543.41 95.3,564.44 87.58,581.41 " fill="none" id="creative-works-backto-books" style="stroke:#181818;stroke-width:1.0;"/><polygon fill="none" points="154.74,479.79,138.1506,488.9983,146.9935,497.1103,154.74,479.79" style="stroke:#181818;stroke-width:1.0;"/></g><!--reverse link books to coloring-books--><g id="link_books_coloring-books"><path codeLine="14" d="M74.5,663.66 C74.5,685.1 74.5,695.12 74.5,714.64 " fill="none" id="books-backto-coloring-books" style="stroke:#181818;stroke-width:1.0;"/><polygon fill="none" points="74.5,645.66,68.5,663.66,80.5,663.66,74.5,645.66" style="stroke:#181818;stroke-width:1.0;"/></g><!--reverse link things to addresses--><g id="link_things_addresses"><path codeLine="22" d="M500.786,87.7107 C504.826,97.0507 501.45,90.96 503.5,101 C527.33,217.7 559.44,263.84 503.5,369 C491.01,392.49 467.87,410.14 445.61,422.61 " fill="none" id="things-backto-addresses" style="stroke:#181818;stroke-width:1.0;"/><polygon fill="none" points="493.64,71.19,495.2791,90.0927,506.2929,85.3287,493.64,71.19" style="stroke:#181818;stroke-width:1.0;"/></g><!--link creative-works to comments--><g id="link_creative-works_comments"><path codeLine="26" d="M148.66,479.72 C131.72,498 117.72,521.62 129.5,543 C140.02,562.09 153.0438,573.6701 171.6638,584.4201 " fill="none" id="creative-works-to-comments" style="stroke:#181818;stroke-width:1.0;"/><polygon fill="#181818" points="176.86,587.42,171.0657,579.456,172.5298,584.92,167.0658,586.3842,176.86,587.42" style="stroke:#181818;stroke-width:1.0;"/><polygon fill="#000000" points="135.573,539.4499,136.5024,529.9849,130.7615,531.2462,135.573,539.4499" style="stroke:#000000;stroke-width:1.0;"/><text fill="#000000" font-family="sans-serif" font-size="13" lengthAdjust="spacing" textLength="69" x="143.5" y="539.0669">comments</text><text fill="#000000" font-family="sans-serif" font-size="13" lengthAdjust="spacing" textLength="7" x="161.7992" y="580.4272">*</text></g><!--link comments to creative-works--><g id="link_comments_creative-works"><path codeLine="31" d="M257.88,572.95 C262.37,557.93 264.4,540.86 258.5,526 C251.55,508.48 242.8445,496.7898 229.7245,484.0498 " fill="none" id="comments-to-creative-works" style="stroke:#181818;stroke-width:1.0;"/><polygon fill="#181818" points="225.42,479.87,229.0902,489.0094,229.0071,483.3532,234.6633,483.2701,225.42,479.87" style="stroke:#181818;stroke-width:1.0;"/><polygon fill="#000000" points="265.9904,529.7998,265.9196,539.3101,271.5231,537.5354,265.9904,529.7998" style="stroke:#000000;stroke-width:1.0;"/><text fill="#000000" font-family="sans-serif" font-size="13" lengthAdjust="spacing" textLength="85" x="276.5" y="539.0669">creative-work</text><text fill="#000000" font-family="sans-serif" font-size="13" lengthAdjust="spacing" textLength="8" x="224.4918" y="499.7702">1</text></g><!--reverse link creative-works to comments--><g id="link_creative-works_comments"><path codeLine="32" d="M206.7034,496.3334 C212.6934,510.3034 212.37,510.53 217.5,526 C222.53,541.15 227.07,558.11 230.7,572.97 " fill="none" id="creative-works-backto-comments" style="stroke:#181818;stroke-width:1.0;"/><polygon fill="none" points="199.61,479.79,201.1889,498.6979,212.2179,493.9689,199.61,479.79" style="stroke:#181818;stroke-width:1.0;"/></g><!--reverse link things to creative-works--><g id="link_things_creative-works"><path codeLine="27" d="M486.4593,89.125 C496.9893,153.645 507.95,284.5 432.5,369 C396.46,409.36 366.18,382.96 314.5,399 C293.87,405.4 271.71,413.21 251.67,420.64 " fill="none" id="things-backto-creative-works" style="stroke:#181818;stroke-width:1.0;"/><polygon fill="none" points="483.56,71.36,480.5377,90.0914,492.381,88.1585,483.56,71.36" style="stroke:#181818;stroke-width:1.0;"/></g><!--SRC=[XL91ZiCW3Bpp2iHn9GvxhLRznBx09TuKbM04JgjAVVoIX90DZRGdm3EsXx4JilGmO0fWy1i3H62AqfD7OHoa95L02WwLM2_o97jxHw-dlB_H7nYiUpPXhSzIVIgfeEiYfeHfefQ7FCk6-P6P9Y9mxg0V56ypVH-Piw17pndyUcczQIoI2oWKNwtlAsiD5zQ5w3QHbZEtiUdYnLlx9RUGIweXHp6NrasDXTkY9Qc8sLITPkkhw6gGs9kLE2AoBh4639GOd3RKOOCuCk0iFtVXQl8sje0naLzSRVpQ5At_tdiZ3cR5bXs-0tKFjiOmyZNlsjJta3tl0Wt3CkYy1UL-eBJLLSTKiiMkq1Zkn9Wz6ptlaOuU_XYh-l_PpiFlh6jHYlq2]--></g></svg>
